<svg width="14" height="14" viewBox="0 0 14 14" fill="none" xmlns="http://www.w3.org/2000/svg">
<path d="M12.25 5.83331H4.08329V4.14922C4.08329 3.56764 4.47879 3.02747 5.05221 2.93297C5.2197 2.90447 5.39139 2.91284 5.55532 2.9575C5.71924 3.00215 5.87145 3.08202 6.00135 3.19153C6.13124 3.30105 6.23569 3.43757 6.30741 3.59159C6.37913 3.7456 6.4164 3.91341 6.41663 4.08331H7.58329C7.58301 3.7574 7.51451 3.43516 7.3822 3.13732C7.24988 2.83948 7.05668 2.57263 6.81503 2.35395C6.57338 2.13527 6.28863 1.96959 5.9791 1.86758C5.66957 1.76557 5.34211 1.72948 5.01779 1.76164C3.80504 1.87947 2.91663 2.96856 2.91663 4.18714V5.83331H1.74996C1.59525 5.83331 1.44688 5.89477 1.33748 6.00416C1.22808 6.11356 1.16663 6.26193 1.16663 6.41664V7.58331C1.16663 9.10347 2.14313 10.3967 3.49996 10.8791V12.8333H4.66663V11.0833H9.33329V12.8333H10.5V10.8791C11.8568 10.3967 12.8333 9.10347 12.8333 7.58331V6.41664C12.8333 6.26193 12.7718 6.11356 12.6624 6.00416C12.553 5.89477 12.4047 5.83331 12.25 5.83331Z" fill="#FFA502"/>
</svg>
