<svg width="14" height="14" viewBox="0 0 14 14" fill="none" xmlns="http://www.w3.org/2000/svg">
<path d="M6.5625 5.25H7.4375V4.8125C7.4375 4.69647 7.48359 4.58519 7.56564 4.50314C7.64769 4.42109 7.75897 4.375 7.875 4.375H9.1875C9.30353 4.375 9.41481 4.42109 9.49686 4.50314C9.57891 4.58519 9.625 4.69647 9.625 4.8125V5.25H11.375V3.5C11.375 3.03587 11.1906 2.59075 10.8624 2.26256C10.5342 1.93437 10.0891 1.75 9.625 1.75H4.375C3.91087 1.75 3.46575 1.93437 3.13756 2.26256C2.80937 2.59075 2.625 3.03587 2.625 3.5V5.25H4.375V4.8125C4.375 4.69647 4.42109 4.58519 4.50314 4.50314C4.58519 4.42109 4.69647 4.375 4.8125 4.375H6.125C6.24103 4.375 6.35231 4.42109 6.43436 4.50314C6.51641 4.58519 6.5625 4.69647 6.5625 4.8125V5.25ZM3.0625 6.125C2.48234 6.125 1.92594 6.35547 1.5157 6.7657C1.10547 7.17594 0.875 7.73234 0.875 8.3125V11.8125C0.875 11.9285 0.921094 12.0398 1.00314 12.1219C1.08519 12.2039 1.19647 12.25 1.3125 12.25C1.42853 12.25 1.53981 12.2039 1.62186 12.1219C1.70391 12.0398 1.75 11.9285 1.75 11.8125V9.625H12.25V11.8125C12.25 11.9285 12.2961 12.0398 12.3781 12.1219C12.4602 12.2039 12.5715 12.25 12.6875 12.25C12.8035 12.25 12.9148 12.2039 12.9969 12.1219C13.0789 12.0398 13.125 11.9285 13.125 11.8125V8.3125C13.125 7.73234 12.8945 7.17594 12.4843 6.7657C12.0741 6.35547 11.5177 6.125 10.9375 6.125H3.0625Z" fill="#FFA502"/>
</svg>
