<svg width="150" height="150" viewBox="0 0 150 150" fill="none" xmlns="http://www.w3.org/2000/svg">
<path d="M76.1155 57.3905C78.4308 57.3926 80.7197 57.8953 82.8328 58.8657C84.9459 59.8361 86.8358 61.2525 88.3794 63.0223L93.2116 58.5544C90.1185 55.0267 86.0605 52.537 81.567 51.4104C77.0736 50.2837 72.3534 50.5724 68.0223 52.2388C63.6912 53.9052 59.9504 56.8718 57.2881 60.7515C54.6256 64.6313 53.1654 69.244 53.0977 73.9879C53.03 78.7317 54.358 83.3864 56.9085 87.3443C59.4591 91.3024 63.1136 94.38 67.3953 96.1757C71.6769 97.9713 76.3869 98.4016 80.9106 97.4104C85.4342 96.4191 89.5616 94.0524 92.7541 90.619L88.0315 86.0195C86.1503 88.0373 83.8109 89.5454 81.2226 90.4092C78.6343 91.273 75.8774 91.4656 73.1988 90.9695C70.5201 90.4736 68.0032 89.3047 65.8726 87.5672C63.7421 85.8297 62.0645 83.5779 60.99 81.0129C59.9153 78.4479 59.4771 75.6498 59.7145 72.8688C59.952 70.0877 60.8576 67.4102 62.3504 65.0759C63.8433 62.7415 65.8769 60.8229 68.2695 59.4916C70.6619 58.1602 73.3388 57.4577 76.0608 57.4467L76.1155 57.3905Z" fill="#E5E5E5"/>
<path d="M54.2751 51.8081L49.5076 47.1956C45.7833 50.7532 42.828 54.9819 40.8113 59.6391C38.7948 64.2961 37.7566 69.2898 37.7566 74.3331C37.7566 79.3765 38.7948 84.3701 40.8113 89.0272C42.828 93.6843 45.7833 97.9131 49.5076 101.471L54.2751 96.8581C51.17 93.9128 48.7047 90.4052 47.0221 86.5385C45.3395 82.672 44.4731 78.5234 44.4731 74.3331C44.4731 70.1429 45.3395 65.9942 47.0221 62.1277C48.7047 58.2611 51.17 54.7535 54.2751 51.8081Z" fill="#E5E5E5"/>
<path d="M99.1111 43.0369C92.6107 38.0636 84.7559 35.3866 76.6931 35.3968V42.0937C83.346 42.0873 89.8284 44.2874 95.2029 48.3756L99.1111 43.0369Z" fill="#E5E5E5"/>
<path d="M76.6931 106.663V113.27C84.2352 113.278 91.6161 111.079 97.9312 106.942L94.2215 101.471C89.003 104.868 82.9138 106.671 76.6931 106.663Z" fill="#E5E5E5"/>
<path d="M76.6932 98.5033C71.584 98.4999 66.5992 96.9719 62.4136 94.1261C58.2279 91.2803 55.0436 87.2541 53.2915 82.5925L47.1958 85.342C49.4913 91.1311 53.5383 96.1089 58.8038 99.6198C64.0694 103.131 70.3063 105.01 76.6932 105.011V98.5033Z" fill="#E5E5E5"/>
<path d="M52.5253 73.1534C52.9211 66.9465 55.6389 61.1242 60.1271 56.8678C64.6153 52.6114 70.5379 50.2396 76.6931 50.2336V43.656C68.8106 43.6558 61.2298 46.7178 55.5194 52.2085C49.8091 57.6992 46.4064 65.1982 46.0159 73.1534H52.5253Z" fill="#E5E5E5"/>
<path d="M79.382 78.084C78.7753 78.084 78.2387 78.014 77.772 77.874C77.3147 77.734 76.9227 77.4773 76.596 77.104C76.2787 76.7307 76.036 76.1987 75.868 75.508C75.7093 74.808 75.63 73.9027 75.63 72.792C75.63 71.7187 75.714 70.8413 75.882 70.16C76.0593 69.4693 76.3113 68.9373 76.638 68.564C76.9647 68.1813 77.3613 67.9153 77.828 67.766C78.2947 67.6167 78.822 67.542 79.41 67.542C79.8767 67.542 80.3107 67.57 80.712 67.626C81.1227 67.6727 81.4913 67.7333 81.818 67.808C82.1447 67.8733 82.42 67.948 82.644 68.032V69.642C82.476 69.6047 82.2473 69.5673 81.958 69.53C81.678 69.4927 81.356 69.4647 80.992 69.446C80.628 69.418 80.2453 69.404 79.844 69.404C79.452 69.404 79.116 69.4507 78.836 69.544C78.5653 69.628 78.346 69.7913 78.178 70.034C78.0193 70.2673 77.898 70.608 77.814 71.056C77.7393 71.504 77.702 72.0873 77.702 72.806C77.702 73.4967 77.7347 74.066 77.8 74.514C77.8747 74.962 77.9913 75.312 78.15 75.564C78.3087 75.8067 78.5233 75.9793 78.794 76.082C79.074 76.1753 79.424 76.222 79.844 76.222C80.5533 76.222 81.1273 76.208 81.566 76.18C82.014 76.152 82.3733 76.1193 82.644 76.082V77.678C82.392 77.762 82.1027 77.8367 81.776 77.902C81.4493 77.958 81.09 78 80.698 78.028C80.306 78.0653 79.8673 78.084 79.382 78.084ZM84.0011 78V70.482H85.5971L86.0731 71.63C86.3438 71.2847 86.6471 70.9907 86.9831 70.748C87.3285 70.5053 87.7345 70.384 88.2011 70.384C88.3038 70.384 88.4065 70.3887 88.5091 70.398C88.6211 70.4073 88.7238 70.426 88.8171 70.454V72.582C88.6771 72.5633 88.5278 72.5493 88.3691 72.54C88.2198 72.5213 88.0751 72.512 87.9351 72.512C87.6645 72.512 87.4171 72.5447 87.1931 72.61C86.9785 72.666 86.7778 72.7547 86.5911 72.876C86.4138 72.988 86.2411 73.1373 86.0731 73.324V78H84.0011ZM92.273 81.318L93.085 78C92.665 78 92.2964 77.9207 91.979 77.762C91.6617 77.6033 91.3957 77.3793 91.181 77.09C90.9757 76.7913 90.817 76.4227 90.705 75.984L89.291 70.482H91.447L92.637 75.564C92.6837 75.7413 92.7444 75.8813 92.819 75.984C92.8937 76.0867 92.973 76.1613 93.057 76.208C93.141 76.2453 93.2157 76.2733 93.281 76.292C93.3557 76.3013 93.4117 76.306 93.449 76.306L94.807 70.482H96.907L94.667 79.932L93.995 81.318H92.273ZM97.8918 81.318V70.482H99.6278L99.9638 71.196C100.141 71.056 100.337 70.9253 100.552 70.804C100.766 70.6733 101 70.5707 101.252 70.496C101.504 70.412 101.77 70.37 102.05 70.37C102.507 70.37 102.904 70.4587 103.24 70.636C103.585 70.8133 103.865 71.07 104.08 71.406C104.294 71.742 104.453 72.1527 104.556 72.638C104.658 73.114 104.71 73.6507 104.71 74.248C104.71 75.0507 104.63 75.7413 104.472 76.32C104.313 76.8987 104.038 77.342 103.646 77.65C103.263 77.9487 102.731 78.098 102.05 78.098C101.695 78.098 101.331 78.056 100.958 77.972C100.594 77.888 100.262 77.7667 99.9638 77.608V81.318H97.8918ZM101.378 76.39C101.592 76.39 101.798 76.334 101.994 76.222C102.19 76.1007 102.344 75.886 102.456 75.578C102.577 75.27 102.638 74.8267 102.638 74.248C102.638 73.688 102.582 73.2493 102.47 72.932C102.367 72.6053 102.222 72.3767 102.036 72.246C101.849 72.106 101.63 72.036 101.378 72.036C101.088 72.036 100.822 72.0827 100.58 72.176C100.337 72.2693 100.132 72.3627 99.9638 72.456V76.026C100.15 76.138 100.37 76.2267 100.622 76.292C100.874 76.3573 101.126 76.39 101.378 76.39ZM109.301 78.07C108.685 78.07 108.158 78.0093 107.719 77.888C107.281 77.7573 106.921 77.5427 106.641 77.244C106.371 76.9453 106.17 76.5487 106.039 76.054C105.918 75.5593 105.857 74.948 105.857 74.22C105.857 73.4547 105.918 72.8247 106.039 72.33C106.17 71.826 106.371 71.434 106.641 71.154C106.921 70.8647 107.281 70.664 107.719 70.552C108.167 70.4307 108.695 70.37 109.301 70.37C109.927 70.37 110.459 70.4307 110.897 70.552C111.336 70.6733 111.691 70.8787 111.961 71.168C112.241 71.448 112.442 71.84 112.563 72.344C112.694 72.8387 112.759 73.464 112.759 74.22C112.759 74.9667 112.699 75.592 112.577 76.096C112.456 76.5907 112.26 76.9827 111.989 77.272C111.719 77.5613 111.359 77.7667 110.911 77.888C110.473 78.0093 109.936 78.07 109.301 78.07ZM109.301 76.418C109.553 76.418 109.763 76.3947 109.931 76.348C110.109 76.3013 110.249 76.208 110.351 76.068C110.463 75.9187 110.547 75.6947 110.603 75.396C110.659 75.0973 110.687 74.7053 110.687 74.22C110.687 73.7253 110.659 73.3333 110.603 73.044C110.547 72.7453 110.463 72.526 110.351 72.386C110.249 72.2367 110.109 72.1387 109.931 72.092C109.763 72.0453 109.553 72.022 109.301 72.022C109.059 72.022 108.849 72.0453 108.671 72.092C108.503 72.1387 108.363 72.2367 108.251 72.386C108.139 72.526 108.055 72.7453 107.999 73.044C107.953 73.3333 107.929 73.7253 107.929 74.22C107.929 74.7053 107.953 75.0973 107.999 75.396C108.055 75.6947 108.139 75.9187 108.251 76.068C108.363 76.208 108.503 76.3013 108.671 76.348C108.849 76.3947 109.059 76.418 109.301 76.418ZM116.864 78.084C116.631 78.084 116.379 78.0747 116.108 78.056C115.837 78.0467 115.567 78.028 115.296 78C115.025 77.972 114.773 77.9393 114.54 77.902C114.307 77.8553 114.111 77.804 113.952 77.748V76.53H117.284C117.48 76.53 117.639 76.516 117.76 76.488C117.891 76.4507 117.984 76.39 118.04 76.306C118.105 76.2127 118.138 76.082 118.138 75.914V75.676C118.138 75.4893 118.077 75.3447 117.956 75.242C117.835 75.1393 117.611 75.088 117.284 75.088H116.108C115.679 75.088 115.291 75.0227 114.946 74.892C114.601 74.7613 114.325 74.5467 114.12 74.248C113.924 73.9493 113.826 73.548 113.826 73.044V72.61C113.826 72.134 113.919 71.7327 114.106 71.406C114.293 71.0793 114.605 70.832 115.044 70.664C115.483 70.496 116.085 70.412 116.85 70.412C117.158 70.412 117.485 70.4307 117.83 70.468C118.185 70.496 118.516 70.538 118.824 70.594C119.141 70.6407 119.393 70.6967 119.58 70.762V71.98H116.43C116.159 71.98 115.954 72.0267 115.814 72.12C115.674 72.204 115.604 72.3673 115.604 72.61V72.834C115.604 73.002 115.637 73.128 115.702 73.212C115.767 73.2867 115.865 73.3427 115.996 73.38C116.136 73.408 116.309 73.422 116.514 73.422H117.718C118.483 73.422 119.039 73.5993 119.384 73.954C119.739 74.2993 119.916 74.78 119.916 75.396V76.068C119.916 76.572 119.795 76.9733 119.552 77.272C119.319 77.5613 118.973 77.7713 118.516 77.902C118.068 78.0233 117.517 78.084 116.864 78.084ZM124.058 78C123.48 78 123.008 77.916 122.644 77.748C122.29 77.58 122.033 77.3 121.874 76.908C121.716 76.516 121.646 75.9887 121.664 75.326L121.734 72.148H120.558V70.818L121.804 70.482L122.084 68.382H123.722V70.482H125.486V72.148H123.722V75.312C123.722 75.5173 123.741 75.6853 123.778 75.816C123.816 75.9467 123.867 76.054 123.932 76.138C124.007 76.2127 124.091 76.2687 124.184 76.306C124.278 76.3433 124.371 76.3667 124.464 76.376L125.416 76.46V78H124.058Z" fill="#E5E5E5"/>
</svg>
