<svg width="128" height="128" viewBox="0 0 128 128" fill="none" xmlns="http://www.w3.org/2000/svg">
<path d="M39.3228 65.3382L47.2313 60.7772L42.8169 53.1354H84.3331L63.5817 89.0903L59.1673 81.4352L51.2589 86.0096L63.5817 107.348L100.15 44H27L39.3228 65.3382Z" fill="#E5E5E5"/>
<path d="M10.536 30V12.24H18.048C19.248 12.24 20.248 12.456 21.048 12.888C21.848 13.304 22.48 13.912 22.944 14.712C23.424 15.496 23.76 16.432 23.952 17.52C24.144 18.608 24.24 19.808 24.24 21.12C24.24 23.12 24.008 24.776 23.544 26.088C23.096 27.4 22.416 28.384 21.504 29.04C20.592 29.68 19.44 30 18.048 30H10.536ZM14.088 26.808H17.688C18.424 26.808 19.008 26.6 19.44 26.184C19.872 25.752 20.184 25.112 20.376 24.264C20.584 23.416 20.688 22.368 20.688 21.12C20.688 19.968 20.624 19.024 20.496 18.288C20.368 17.536 20.176 16.952 19.92 16.536C19.68 16.12 19.368 15.832 18.984 15.672C18.616 15.512 18.184 15.432 17.688 15.432H14.088V26.808ZM31.8701 30.12C30.4461 30.12 29.3101 29.936 28.4621 29.568C27.6141 29.184 26.9981 28.512 26.6141 27.552C26.2461 26.592 26.0621 25.264 26.0621 23.568C26.0621 21.824 26.2381 20.472 26.5901 19.512C26.9421 18.552 27.5341 17.88 28.3661 17.496C29.1981 17.112 30.3261 16.92 31.7501 16.92C33.0301 16.92 34.0541 17.048 34.8221 17.304C35.5901 17.56 36.1421 18.008 36.4781 18.648C36.8301 19.288 37.0061 20.192 37.0061 21.36C37.0061 22.224 36.8301 22.912 36.4781 23.424C36.1421 23.92 35.6621 24.28 35.0381 24.504C34.4141 24.712 33.6781 24.816 32.8301 24.816H29.5901C29.6221 25.472 29.7181 26 29.8781 26.4C30.0541 26.784 30.3661 27.064 30.8141 27.24C31.2781 27.4 31.9421 27.48 32.8061 27.48H36.5741V29.568C35.9501 29.696 35.2621 29.824 34.5101 29.952C33.7741 30.064 32.8941 30.12 31.8701 30.12ZM29.5421 22.704H32.4701C32.9501 22.704 33.3021 22.608 33.5261 22.416C33.7501 22.224 33.8621 21.88 33.8621 21.384C33.8621 20.92 33.7901 20.552 33.6461 20.28C33.5021 19.992 33.2781 19.792 32.9741 19.68C32.6701 19.552 32.2621 19.488 31.7501 19.488C31.2061 19.488 30.7741 19.584 30.4541 19.776C30.1341 19.952 29.9021 20.272 29.7581 20.736C29.6141 21.2 29.5421 21.856 29.5421 22.704ZM43.3688 30.048C42.4568 30.048 41.6968 29.904 41.0888 29.616C40.4968 29.312 40.0568 28.856 39.7688 28.248C39.4808 27.624 39.3368 26.824 39.3368 25.848V11.688H42.8888V25.32C42.8888 25.8 42.9368 26.184 43.0328 26.472C43.1288 26.744 43.2728 26.944 43.4648 27.072C43.6728 27.2 43.9288 27.288 44.2328 27.336L45.2168 27.48V30.048H43.3688ZM51.7562 30C50.7642 30 49.9562 29.856 49.3322 29.568C48.7242 29.28 48.2842 28.8 48.0122 28.128C47.7402 27.456 47.6202 26.552 47.6522 25.416L47.7722 19.968H45.7562V17.688L47.8922 17.112L48.3722 13.512H51.1802V17.112H54.2042V19.968H51.1802V25.392C51.1802 25.744 51.2122 26.032 51.2762 26.256C51.3402 26.48 51.4282 26.664 51.5402 26.808C51.6682 26.936 51.8122 27.032 51.9722 27.096C52.1322 27.16 52.2922 27.2 52.4522 27.216L54.0842 27.36V30H51.7562ZM58.9243 30.144C57.9483 30.144 57.1563 29.856 56.5483 29.28C55.9403 28.704 55.6363 27.904 55.6363 26.88V25.728C55.6363 24.752 55.9803 23.952 56.6683 23.328C57.3563 22.688 58.4283 22.368 59.8843 22.368H63.1723V21.48C63.1723 21.08 63.1003 20.752 62.9563 20.496C62.8123 20.224 62.5403 20.032 62.1403 19.92C61.7563 19.792 61.1643 19.728 60.3643 19.728H56.5003V17.664C57.1243 17.472 57.8443 17.304 58.6603 17.16C59.4923 17.016 60.4923 16.944 61.6603 16.944C62.7323 16.944 63.6443 17.072 64.3963 17.328C65.1643 17.584 65.7403 18.024 66.1243 18.648C66.5243 19.272 66.7243 20.136 66.7243 21.24V30H63.9163L63.3403 28.632C63.2283 28.76 63.0363 28.904 62.7643 29.064C62.4923 29.224 62.1563 29.392 61.7563 29.568C61.3723 29.728 60.9323 29.864 60.4363 29.976C59.9563 30.088 59.4523 30.144 58.9243 30.144ZM60.7243 27.672C60.8843 27.672 61.0603 27.656 61.2523 27.624C61.4603 27.576 61.6683 27.528 61.8763 27.48C62.1003 27.416 62.3003 27.36 62.4763 27.312C62.6683 27.248 62.8203 27.192 62.9323 27.144C63.0603 27.096 63.1403 27.064 63.1723 27.048V24.048L61.0123 24.192C60.3883 24.24 59.9243 24.4 59.6203 24.672C59.3323 24.944 59.1883 25.312 59.1883 25.776V26.304C59.1883 26.624 59.2523 26.888 59.3803 27.096C59.5243 27.304 59.7083 27.456 59.9323 27.552C60.1723 27.632 60.4363 27.672 60.7243 27.672ZM69.3836 35.688V17.112H72.3596L72.9356 18.336C73.2396 18.096 73.5756 17.872 73.9436 17.664C74.3116 17.44 74.7116 17.264 75.1436 17.136C75.5756 16.992 76.0316 16.92 76.5116 16.92C77.2956 16.92 77.9756 17.072 78.5516 17.376C79.1436 17.68 79.6236 18.12 79.9916 18.696C80.3596 19.272 80.6316 19.976 80.8076 20.808C80.9836 21.624 81.0716 22.544 81.0716 23.568C81.0716 24.944 80.9356 26.128 80.6636 27.12C80.3916 28.112 79.9196 28.872 79.2476 29.4C78.5916 29.912 77.6796 30.168 76.5116 30.168C75.9036 30.168 75.2796 30.096 74.6396 29.952C74.0156 29.808 73.4476 29.6 72.9356 29.328V35.688H69.3836ZM75.3596 27.24C75.7276 27.24 76.0796 27.144 76.4156 26.952C76.7516 26.744 77.0156 26.376 77.2076 25.848C77.4156 25.32 77.5196 24.56 77.5196 23.568C77.5196 22.608 77.4236 21.856 77.2316 21.312C77.0556 20.752 76.8076 20.36 76.4876 20.136C76.1676 19.896 75.7916 19.776 75.3596 19.776C74.8636 19.776 74.4076 19.856 73.9916 20.016C73.5756 20.176 73.2236 20.336 72.9356 20.496V26.616C73.2556 26.808 73.6316 26.96 74.0636 27.072C74.4956 27.184 74.9276 27.24 75.3596 27.24ZM86.1587 30.144C85.1827 30.144 84.3907 29.856 83.7827 29.28C83.1747 28.704 82.8707 27.904 82.8707 26.88V25.728C82.8707 24.752 83.2147 23.952 83.9027 23.328C84.5907 22.688 85.6627 22.368 87.1187 22.368H90.4067V21.48C90.4067 21.08 90.3347 20.752 90.1907 20.496C90.0467 20.224 89.7747 20.032 89.3747 19.92C88.9907 19.792 88.3987 19.728 87.5987 19.728H83.7347V17.664C84.3587 17.472 85.0787 17.304 85.8947 17.16C86.7267 17.016 87.7267 16.944 88.8947 16.944C89.9667 16.944 90.8787 17.072 91.6307 17.328C92.3987 17.584 92.9747 18.024 93.3587 18.648C93.7587 19.272 93.9587 20.136 93.9587 21.24V30H91.1507L90.5747 28.632C90.4627 28.76 90.2707 28.904 89.9987 29.064C89.7267 29.224 89.3907 29.392 88.9907 29.568C88.6067 29.728 88.1667 29.864 87.6707 29.976C87.1907 30.088 86.6867 30.144 86.1587 30.144ZM87.9587 27.672C88.1187 27.672 88.2947 27.656 88.4867 27.624C88.6947 27.576 88.9027 27.528 89.1107 27.48C89.3347 27.416 89.5347 27.36 89.7107 27.312C89.9027 27.248 90.0547 27.192 90.1667 27.144C90.2947 27.096 90.3747 27.064 90.4067 27.048V24.048L88.2467 24.192C87.6227 24.24 87.1587 24.4 86.8547 24.672C86.5667 24.944 86.4227 25.312 86.4227 25.776V26.304C86.4227 26.624 86.4867 26.888 86.6147 27.096C86.7587 27.304 86.9427 27.456 87.1667 27.552C87.4067 27.632 87.6707 27.672 87.9587 27.672ZM96.618 30V17.112H99.354L100.17 19.08C100.634 18.488 101.154 17.984 101.73 17.568C102.322 17.152 103.018 16.944 103.818 16.944C103.994 16.944 104.17 16.952 104.346 16.968C104.538 16.984 104.714 17.016 104.874 17.064V20.712C104.634 20.68 104.378 20.656 104.106 20.64C103.85 20.608 103.602 20.592 103.362 20.592C102.898 20.592 102.474 20.648 102.09 20.76C101.722 20.856 101.378 21.008 101.058 21.216C100.754 21.408 100.458 21.664 100.17 21.984V30H96.618ZM106.766 30V11.688H110.318V21.576H111.83L114.662 17.112H118.262L114.47 23.184L118.646 30H115.046L111.782 24.792H110.318V30H106.766Z" fill="#E5E5E5"/>
</svg>
