<svg width="150" height="150" viewBox="0 0 150 150" fill="none" xmlns="http://www.w3.org/2000/svg">
<path d="M99.7719 83.796C98.5743 82.4696 97.5585 80.9895 96.7514 79.395C95.4762 76.8958 93.7137 74.677 91.5678 72.8695C89.4218 71.062 86.9358 69.7022 84.2563 68.8704C81.9131 68.1459 79.4612 67.8384 77.0117 67.9619C78.7945 67.86 80.55 68.4356 81.9262 69.5735C83.3026 70.7112 84.1981 72.3271 84.4333 74.0973C85.0778 77.9222 86.773 81.4925 89.3296 84.4095C91.8861 87.3265 95.2033 89.4752 98.9106 90.6158C103.15 91.9187 107.692 91.8485 111.889 90.4152C107.214 89.6528 102.94 87.3178 99.7719 83.796Z" fill="#E5E5E5"/>
<path d="M69.5193 68.1978C70.0641 70.5911 71.0224 72.871 72.3511 74.935C71.3808 73.4363 71.0074 71.6284 71.3045 69.868C71.6015 68.1075 72.5475 66.5223 73.9557 65.425C76.9466 62.951 79.1921 59.6953 80.4421 56.0205C81.6919 52.3458 81.8972 48.3962 81.0351 44.6117C80.0509 40.2823 77.7165 36.3778 74.3687 33.4617C76.0354 37.9171 76.1312 42.8081 74.6401 47.3254C74.0692 49.0309 73.2757 50.6534 72.2803 52.1512C70.7518 54.504 69.7106 57.1396 69.2181 59.9018C68.7256 62.6641 68.7919 65.497 69.4131 68.2332L69.5193 68.1978Z" fill="#E5E5E5"/>
<path d="M80.7873 75.4187C79.9846 77.0146 78.6083 78.2482 76.9342 78.8718C75.2603 79.4955 73.4124 79.4631 71.7611 78.7814C68.1222 77.4177 64.1757 77.0927 60.3627 77.8428C56.5497 78.5929 53.0204 80.3885 50.1692 83.029C46.9182 86.0533 44.7118 90.0321 43.8684 94.3914C46.8935 90.7193 51.0806 88.1887 55.7381 87.2176C57.4879 86.8595 59.2755 86.7208 61.0595 86.8047C63.8578 86.9497 66.6568 86.5326 69.2912 85.5782C71.9256 84.6237 74.3421 83.1511 76.3981 81.2474C78.1974 79.5764 79.6908 77.6039 80.8109 75.4187H80.7873Z" fill="#E5E5E5"/>
<path d="M27.888 132.144C27.424 132.144 26.944 132.128 26.448 132.096C25.968 132.08 25.472 132.048 24.96 132C24.464 131.936 23.992 131.872 23.544 131.808C23.096 131.728 22.688 131.64 22.32 131.544V128.736C22.8 128.784 23.344 128.824 23.952 128.856C24.56 128.888 25.192 128.912 25.848 128.928C26.504 128.944 27.128 128.952 27.72 128.952C28.328 128.952 28.848 128.904 29.28 128.808C29.728 128.696 30.072 128.512 30.312 128.256C30.552 127.984 30.672 127.616 30.672 127.152V126.504C30.672 125.976 30.512 125.576 30.192 125.304C29.888 125.016 29.448 124.872 28.872 124.872H27.36C25.664 124.872 24.36 124.504 23.448 123.768C22.552 123.016 22.104 121.744 22.104 119.952V119.088C22.104 117.36 22.6 116.096 23.592 115.296C24.584 114.496 26 114.096 27.84 114.096C28.496 114.096 29.144 114.128 29.784 114.192C30.44 114.256 31.064 114.336 31.656 114.432C32.264 114.512 32.784 114.6 33.216 114.696V117.504C32.48 117.456 31.656 117.408 30.744 117.36C29.848 117.312 29.016 117.288 28.248 117.288C27.704 117.288 27.216 117.344 26.784 117.456C26.368 117.552 26.048 117.744 25.824 118.032C25.6 118.32 25.488 118.728 25.488 119.256V119.736C25.488 120.36 25.664 120.808 26.016 121.08C26.368 121.352 26.888 121.488 27.576 121.488H29.328C30.4 121.488 31.28 121.688 31.968 122.088C32.672 122.472 33.192 123.008 33.528 123.696C33.88 124.384 34.056 125.168 34.056 126.048V127.056C34.056 128.448 33.792 129.512 33.264 130.248C32.752 130.984 32.032 131.488 31.104 131.76C30.192 132.016 29.12 132.144 27.888 132.144ZM41.3968 132C40.4048 132 39.5968 131.856 38.9728 131.568C38.3648 131.28 37.9248 130.8 37.6528 130.128C37.3808 129.456 37.2608 128.552 37.2928 127.416L37.4128 121.968H35.3968V119.688L37.5328 119.112L38.0128 115.512H40.8208V119.112H43.8448V121.968H40.8208V127.392C40.8208 127.744 40.8528 128.032 40.9168 128.256C40.9808 128.48 41.0688 128.664 41.1808 128.808C41.3088 128.936 41.4528 129.032 41.6128 129.096C41.7728 129.16 41.9328 129.2 42.0928 129.216L43.7248 129.36V132H41.3968ZM48.5649 132.144C47.5889 132.144 46.7969 131.856 46.1889 131.28C45.5809 130.704 45.2769 129.904 45.2769 128.88V127.728C45.2769 126.752 45.6209 125.952 46.3089 125.328C46.9969 124.688 48.0689 124.368 49.5249 124.368H52.8129V123.48C52.8129 123.08 52.7409 122.752 52.5969 122.496C52.4529 122.224 52.1809 122.032 51.7809 121.92C51.3969 121.792 50.8049 121.728 50.0049 121.728H46.1409V119.664C46.7649 119.472 47.4849 119.304 48.3009 119.16C49.1329 119.016 50.1329 118.944 51.3009 118.944C52.3729 118.944 53.2849 119.072 54.0369 119.328C54.8049 119.584 55.3809 120.024 55.7649 120.648C56.1649 121.272 56.3649 122.136 56.3649 123.24V132H53.5569L52.9809 130.632C52.8689 130.76 52.6769 130.904 52.4049 131.064C52.1329 131.224 51.7969 131.392 51.3969 131.568C51.0129 131.728 50.5729 131.864 50.0769 131.976C49.5969 132.088 49.0929 132.144 48.5649 132.144ZM50.3649 129.672C50.5249 129.672 50.7009 129.656 50.8929 129.624C51.1009 129.576 51.3089 129.528 51.5169 129.48C51.7409 129.416 51.9409 129.36 52.1169 129.312C52.3089 129.248 52.4609 129.192 52.5729 129.144C52.7009 129.096 52.7809 129.064 52.8129 129.048V126.048L50.6529 126.192C50.0289 126.24 49.5649 126.4 49.2609 126.672C48.9729 126.944 48.8289 127.312 48.8289 127.776V128.304C48.8289 128.624 48.8929 128.888 49.0209 129.096C49.1649 129.304 49.3489 129.456 49.5729 129.552C49.8129 129.632 50.0769 129.672 50.3649 129.672ZM59.4563 117.216C59.1203 117.216 58.9523 117.056 58.9523 116.736V114.384C58.9523 114.048 59.1203 113.88 59.4563 113.88H62.1923C62.3363 113.88 62.4483 113.928 62.5283 114.024C62.6083 114.12 62.6483 114.24 62.6483 114.384V116.736C62.6483 117.056 62.4963 117.216 62.1923 117.216H59.4563ZM59.0243 132V119.112H62.5763V132H59.0243ZM65.3055 132V119.112H68.0415L68.8575 121.08C69.3215 120.488 69.8415 119.984 70.4175 119.568C71.0095 119.152 71.7055 118.944 72.5055 118.944C72.6815 118.944 72.8575 118.952 73.0335 118.968C73.2255 118.984 73.4015 119.016 73.5615 119.064V122.712C73.3215 122.68 73.0655 122.656 72.7935 122.64C72.5375 122.608 72.2895 122.592 72.0495 122.592C71.5855 122.592 71.1615 122.648 70.7775 122.76C70.4095 122.856 70.0655 123.008 69.7455 123.216C69.4415 123.408 69.1455 123.664 68.8575 123.984V132H65.3055ZM82.7499 132.144C82.1899 132.144 81.6859 132.08 81.2379 131.952C80.7899 131.824 80.3819 131.656 80.0139 131.448C79.6619 131.24 79.3259 131.016 79.0059 130.776L78.4299 132H75.4539V113.688H79.0059V120C79.5179 119.728 80.0939 119.48 80.7339 119.256C81.3739 119.032 81.9899 118.92 82.5819 118.92C83.6859 118.92 84.5659 119.152 85.2219 119.616C85.8939 120.08 86.3819 120.808 86.6859 121.8C86.9899 122.776 87.1419 124.072 87.1419 125.688C87.1419 127.128 86.9819 128.328 86.6619 129.288C86.3579 130.248 85.8779 130.968 85.2219 131.448C84.5819 131.912 83.7579 132.144 82.7499 132.144ZM81.4299 129.24C81.8459 129.24 82.2139 129.136 82.5339 128.928C82.8699 128.704 83.1259 128.32 83.3019 127.776C83.4939 127.232 83.5899 126.48 83.5899 125.52C83.5899 124.4 83.4859 123.584 83.2779 123.072C83.0859 122.544 82.8219 122.2 82.4859 122.04C82.1659 121.864 81.8139 121.776 81.4299 121.776C80.9499 121.776 80.5019 121.856 80.0859 122.016C79.6859 122.16 79.3259 122.32 79.0059 122.496V128.616C79.3099 128.776 79.6539 128.92 80.0379 129.048C80.4379 129.176 80.9019 129.24 81.4299 129.24ZM92.229 132.144C91.253 132.144 90.461 131.856 89.853 131.28C89.245 130.704 88.941 129.904 88.941 128.88V127.728C88.941 126.752 89.285 125.952 89.973 125.328C90.661 124.688 91.733 124.368 93.189 124.368H96.477V123.48C96.477 123.08 96.405 122.752 96.261 122.496C96.117 122.224 95.845 122.032 95.445 121.92C95.061 121.792 94.469 121.728 93.669 121.728H89.805V119.664C90.429 119.472 91.149 119.304 91.965 119.16C92.797 119.016 93.797 118.944 94.965 118.944C96.037 118.944 96.949 119.072 97.701 119.328C98.469 119.584 99.045 120.024 99.429 120.648C99.829 121.272 100.029 122.136 100.029 123.24V132H97.221L96.645 130.632C96.533 130.76 96.341 130.904 96.069 131.064C95.797 131.224 95.461 131.392 95.061 131.568C94.677 131.728 94.237 131.864 93.741 131.976C93.261 132.088 92.757 132.144 92.229 132.144ZM94.029 129.672C94.189 129.672 94.365 129.656 94.557 129.624C94.765 129.576 94.973 129.528 95.181 129.48C95.405 129.416 95.605 129.36 95.781 129.312C95.973 129.248 96.125 129.192 96.237 129.144C96.365 129.096 96.445 129.064 96.477 129.048V126.048L94.317 126.192C93.693 126.24 93.229 126.4 92.925 126.672C92.637 126.944 92.493 127.312 92.493 127.776V128.304C92.493 128.624 92.557 128.888 92.685 129.096C92.829 129.304 93.013 129.456 93.237 129.552C93.477 129.632 93.741 129.672 94.029 129.672ZM102.688 132V119.112H105.616L106.24 120.432C106.72 120.032 107.32 119.68 108.04 119.376C108.776 119.056 109.528 118.896 110.296 118.896C111.352 118.896 112.168 119.104 112.744 119.52C113.32 119.936 113.72 120.496 113.944 121.2C114.184 121.888 114.304 122.656 114.304 123.504V132H110.752V123.96C110.752 123.544 110.672 123.2 110.512 122.928C110.368 122.656 110.16 122.448 109.888 122.304C109.616 122.16 109.288 122.088 108.904 122.088C108.568 122.088 108.24 122.128 107.92 122.208C107.616 122.288 107.32 122.4 107.032 122.544C106.76 122.688 106.496 122.856 106.24 123.048V132H102.688ZM116.962 132V113.688H120.514V123.576H122.026L124.858 119.112H128.458L124.666 125.184L128.842 132H125.242L121.978 126.792H120.514V132H116.962Z" fill="#E5E5E5"/>
</svg>
