<svg width="150" height="150" viewBox="0 0 150 150" fill="none" xmlns="http://www.w3.org/2000/svg">
<path d="M59.0899 42.9449C57.9117 43.7191 56.9306 44.7609 56.2255 45.986C55.5205 47.211 55.1111 48.5855 55.0304 49.9988V58.0319C55.1111 59.4451 55.5205 60.8196 56.2255 62.0447C56.9306 63.2699 57.9117 64.3115 59.0899 65.0857L67.4895 70.0649C69.7173 71.3595 71.5489 70.2973 71.5489 67.7081V40.4885C71.5489 37.8993 69.7173 36.8372 67.4895 38.1318L59.0899 42.9449Z" fill="#E5E5E5"/>
<path d="M58.2149 66.8264C56.9954 66.2156 55.6478 65.8972 54.2812 65.8972C52.9145 65.8972 51.5669 66.2156 50.3474 66.8264L43.6336 70.6357C42.4895 71.3761 41.5369 72.3721 40.8522 73.5436C40.1676 74.7153 39.7701 76.0296 39.6918 77.381V86.7135C39.6918 89.1895 41.4705 90.2053 43.6336 88.9673L66.3869 75.9526C68.5501 74.7147 68.5501 72.699 66.3869 71.4609L58.2149 66.8264Z" fill="#E5E5E5"/>
<path d="M88.7277 42.9449C89.9059 43.7191 90.887 44.7609 91.592 45.986C92.2971 47.211 92.7065 48.5855 92.7871 49.9988V58.0319C92.7065 59.4451 92.2971 60.8196 91.592 62.0447C90.887 63.2699 89.9059 64.3115 88.7277 65.0857L80.3116 70.0649C78.0838 71.3595 76.2686 70.2973 76.2686 67.7081V40.4885C76.2686 37.8993 78.0838 36.8372 80.3116 38.1318L88.7277 42.9449Z" fill="#E5E5E5"/>
<path d="M88.8367 66.8264C90.1078 66.2156 91.5122 65.8972 92.9366 65.8972C94.361 65.8972 95.7655 66.2156 97.0366 66.8264L104.034 70.6357C105.224 71.3769 106.215 72.3735 106.925 73.5452C107.636 74.7168 108.047 76.0307 108.126 77.381V86.7135C108.126 89.1895 106.289 90.2053 104.034 88.9673L80.3194 75.9526C78.0648 74.7147 78.0648 72.699 80.3194 71.4609L88.8367 66.8264Z" fill="#E5E5E5"/>
<path d="M54.2113 101.546C55.4316 102.156 56.7799 102.474 58.1472 102.474C59.5147 102.474 60.863 102.156 62.0832 101.546L68.801 97.7262C69.9439 96.9825 70.8946 95.9843 71.5768 94.8118C72.2589 93.6391 72.6534 92.3247 72.7288 90.974V81.6541C72.7288 79.1813 70.9654 78.167 68.801 79.4033L46.0347 92.4005C43.8703 93.6368 43.8703 95.6498 46.0347 96.8861L54.2113 101.546Z" fill="#E5E5E5"/>
<path d="M73.9087 90.9817C73.9886 92.329 74.4002 93.6399 75.1108 94.8089C75.8214 95.9781 76.811 96.9728 78.0003 97.7136L84.9979 101.547C86.269 102.156 87.6735 102.474 89.0979 102.474C90.5223 102.474 91.9267 102.156 93.1978 101.547L101.715 96.8741C103.97 95.6386 103.97 93.6269 101.715 92.3914L78.0003 79.4029C75.7458 78.1674 73.9087 79.1812 73.9087 81.6521V90.9817Z" fill="#E5E5E5"/>
<path d="M15.656 132L11.408 114.24H15.08L17.936 126.768L21.272 114.24H24.536L27.848 126.768L30.704 114.24H34.376L30.128 132H26.504L22.904 119.472L19.28 132H15.656ZM40.7161 132.12C39.6601 132.12 38.7561 132.016 38.0041 131.808C37.2521 131.584 36.6361 131.216 36.1561 130.704C35.6921 130.192 35.3481 129.512 35.1241 128.664C34.9161 127.816 34.8121 126.768 34.8121 125.52C34.8121 124.208 34.9161 123.128 35.1241 122.28C35.3481 121.416 35.6921 120.744 36.1561 120.264C36.6361 119.768 37.2521 119.424 38.0041 119.232C38.7721 119.024 39.6761 118.92 40.7161 118.92C41.7881 118.92 42.7001 119.024 43.4521 119.232C44.2041 119.44 44.8121 119.792 45.2761 120.288C45.7561 120.768 46.1001 121.44 46.3081 122.304C46.5321 123.152 46.6441 124.224 46.6441 125.52C46.6441 126.8 46.5401 127.872 46.3321 128.736C46.1241 129.584 45.7881 130.256 45.3241 130.752C44.8601 131.248 44.2441 131.6 43.4761 131.808C42.7241 132.016 41.8041 132.12 40.7161 132.12ZM40.7161 129.288C41.1481 129.288 41.5081 129.248 41.7961 129.168C42.1001 129.088 42.3401 128.928 42.5161 128.688C42.7081 128.432 42.8521 128.048 42.9481 127.536C43.0441 127.024 43.0921 126.352 43.0921 125.52C43.0921 124.672 43.0441 124 42.9481 123.504C42.8521 122.992 42.7081 122.616 42.5161 122.376C42.3401 122.12 42.1001 121.952 41.7961 121.872C41.5081 121.792 41.1481 121.752 40.7161 121.752C40.3001 121.752 39.9401 121.792 39.6361 121.872C39.3481 121.952 39.1081 122.12 38.9161 122.376C38.7241 122.616 38.5801 122.992 38.4841 123.504C38.4041 124 38.3641 124.672 38.3641 125.52C38.3641 126.352 38.4041 127.024 38.4841 127.536C38.5801 128.048 38.7241 128.432 38.9161 128.688C39.1081 128.928 39.3481 129.088 39.6361 129.168C39.9401 129.248 40.3001 129.288 40.7161 129.288ZM49.0008 132V119.112H51.9288L52.5528 120.432C53.0328 120.032 53.6328 119.68 54.3528 119.376C55.0888 119.056 55.8408 118.896 56.6088 118.896C57.6648 118.896 58.4808 119.104 59.0568 119.52C59.6328 119.936 60.0328 120.496 60.2568 121.2C60.4968 121.888 60.6168 122.656 60.6168 123.504V132H57.0648V123.96C57.0648 123.544 56.9848 123.2 56.8248 122.928C56.6808 122.656 56.4728 122.448 56.2008 122.304C55.9288 122.16 55.6008 122.088 55.2168 122.088C54.8808 122.088 54.5528 122.128 54.2328 122.208C53.9288 122.288 53.6328 122.4 53.3448 122.544C53.0728 122.688 52.8088 122.856 52.5528 123.048V132H49.0008ZM67.4983 132.144C66.4903 132.144 65.6423 131.936 64.9543 131.52C64.2663 131.088 63.7463 130.4 63.3943 129.456C63.0583 128.496 62.8903 127.24 62.8903 125.688C62.8903 124.088 63.0343 122.792 63.3223 121.8C63.6263 120.808 64.1303 120.08 64.8343 119.616C65.5383 119.152 66.5063 118.92 67.7383 118.92C68.3303 118.92 68.9143 118.984 69.4903 119.112C70.0663 119.224 70.5783 119.36 71.0263 119.52V113.688H74.6023V132H71.6023L71.0263 130.776C70.7543 131.032 70.4183 131.264 70.0183 131.472C69.6343 131.68 69.2263 131.848 68.7943 131.976C68.3623 132.088 67.9303 132.144 67.4983 132.144ZM68.7463 129.288C69.2263 129.288 69.6583 129.208 70.0423 129.048C70.4423 128.888 70.7703 128.728 71.0263 128.568V122.088C70.7063 121.976 70.3703 121.864 70.0183 121.752C69.6663 121.64 69.2903 121.584 68.8903 121.584C68.2983 121.584 67.8183 121.688 67.4503 121.896C67.0983 122.104 66.8423 122.496 66.6823 123.072C66.5223 123.632 66.4423 124.448 66.4423 125.52C66.4423 126.512 66.5143 127.288 66.6583 127.848C66.8183 128.392 67.0663 128.768 67.4023 128.976C67.7383 129.184 68.1863 129.288 68.7463 129.288ZM82.6904 132.12C81.2664 132.12 80.1304 131.936 79.2824 131.568C78.4344 131.184 77.8184 130.512 77.4344 129.552C77.0664 128.592 76.8824 127.264 76.8824 125.568C76.8824 123.824 77.0584 122.472 77.4104 121.512C77.7624 120.552 78.3544 119.88 79.1864 119.496C80.0184 119.112 81.1464 118.92 82.5704 118.92C83.8504 118.92 84.8744 119.048 85.6424 119.304C86.4104 119.56 86.9624 120.008 87.2984 120.648C87.6504 121.288 87.8264 122.192 87.8264 123.36C87.8264 124.224 87.6504 124.912 87.2984 125.424C86.9624 125.92 86.4824 126.28 85.8584 126.504C85.2344 126.712 84.4984 126.816 83.6504 126.816H80.4104C80.4424 127.472 80.5384 128 80.6984 128.4C80.8744 128.784 81.1864 129.064 81.6344 129.24C82.0984 129.4 82.7624 129.48 83.6264 129.48H87.3944V131.568C86.7704 131.696 86.0824 131.824 85.3304 131.952C84.5944 132.064 83.7144 132.12 82.6904 132.12ZM80.3624 124.704H83.2904C83.7704 124.704 84.1224 124.608 84.3464 124.416C84.5704 124.224 84.6824 123.88 84.6824 123.384C84.6824 122.92 84.6104 122.552 84.4664 122.28C84.3224 121.992 84.0984 121.792 83.7944 121.68C83.4904 121.552 83.0824 121.488 82.5704 121.488C82.0264 121.488 81.5944 121.584 81.2744 121.776C80.9544 121.952 80.7224 122.272 80.5784 122.736C80.4344 123.2 80.3624 123.856 80.3624 124.704ZM90.1571 132V119.112H92.8931L93.7091 121.08C94.1731 120.488 94.6931 119.984 95.2691 119.568C95.8611 119.152 96.5571 118.944 97.3571 118.944C97.5331 118.944 97.7091 118.952 97.8851 118.968C98.0771 118.984 98.2531 119.016 98.4131 119.064V122.712C98.1731 122.68 97.9171 122.656 97.6451 122.64C97.3891 122.608 97.1411 122.592 96.9011 122.592C96.4371 122.592 96.0131 122.648 95.6291 122.76C95.2611 122.856 94.9171 123.008 94.5971 123.216C94.2931 123.408 93.9971 123.664 93.7091 123.984V132H90.1571ZM101.194 132V121.968H99.3695V119.688L101.194 119.112V118.248C101.194 117.16 101.338 116.272 101.626 115.584C101.93 114.88 102.394 114.368 103.018 114.048C103.642 113.712 104.466 113.544 105.49 113.544C106.05 113.544 106.554 113.584 107.002 113.664C107.466 113.744 107.85 113.824 108.154 113.904V116.448H106.186C105.818 116.448 105.53 116.504 105.322 116.616C105.114 116.728 104.97 116.904 104.89 117.144C104.81 117.368 104.77 117.672 104.77 118.056V119.112H108.034V121.968H104.77V132H101.194ZM113.375 132.144C112.223 132.144 111.319 131.808 110.663 131.136C110.007 130.448 109.679 129.48 109.679 128.232V119.112H113.231V127.176C113.231 127.896 113.399 128.384 113.735 128.64C114.087 128.88 114.543 129 115.103 129C115.551 129 116.007 128.92 116.471 128.76C116.951 128.584 117.375 128.352 117.743 128.064V119.112H121.319V132H118.367L117.743 130.68C117.167 131.064 116.503 131.408 115.751 131.712C114.999 132 114.207 132.144 113.375 132.144ZM128.033 132.048C127.121 132.048 126.361 131.904 125.753 131.616C125.161 131.312 124.721 130.856 124.433 130.248C124.145 129.624 124.001 128.824 124.001 127.848V113.688H127.553V127.32C127.553 127.8 127.601 128.184 127.697 128.472C127.793 128.744 127.937 128.944 128.129 129.072C128.337 129.2 128.593 129.288 128.897 129.336L129.881 129.48V132.048H128.033ZM135.556 132.048C134.644 132.048 133.884 131.904 133.276 131.616C132.684 131.312 132.244 130.856 131.956 130.248C131.668 129.624 131.524 128.824 131.524 127.848V113.688H135.076V127.32C135.076 127.8 135.124 128.184 135.22 128.472C135.316 128.744 135.46 128.944 135.652 129.072C135.86 129.2 136.116 129.288 136.42 129.336L137.404 129.48V132.048H135.556Z" fill="#E5E5E5"/>
</svg>
