<svg width="168" height="75" viewBox="0 0 168 75" fill="none" xmlns="http://www.w3.org/2000/svg">
<path d="M33.4101 0.29953C15.9562 2.20045 2.13131 16.0945 0.287992 33.5714C-0.265004 38.894 0.403199 44.8041 2.13131 49.7465C6.79721 63.1221 18.4447 72.6267 32.6037 74.5968C34.447 74.8618 38.7557 74.9539 40.6797 74.7811C49.6428 73.9631 57.7073 70.1959 63.9977 63.8825C69.8041 58.053 73.4562 50.6567 74.5967 42.3733C74.8617 40.5069 74.9424 36.4516 74.7811 34.4355C73.894 24.1359 69.0322 14.9309 61.0023 8.39861C55.4723 3.894 48.5599 1.03686 41.4516 0.28801C39.3778 0.0806427 35.4147 0.0806427 33.4101 0.29953ZM40.9447 7.08525C46.4977 7.73041 51.4401 9.70045 55.9101 13.0415C57.788 14.4585 60.576 17.2465 61.97 19.1244C65.0921 23.3064 66.9585 27.7995 67.7995 33.1221C68.099 34.9539 68.1566 38.7788 67.9262 40.7834C67.3387 45.8641 65.7488 50.2419 63.0069 54.3779C60.6336 57.9378 57.7995 60.7604 54.1705 63.1452C50.1728 65.7719 45.7719 67.3387 40.7834 67.9263C38.7788 68.1567 34.9539 68.0991 33.1221 67.7995C27.7995 66.9585 23.3064 65.0922 19.1244 61.97C17.258 60.5876 14.4585 57.788 13.053 55.9101C9.67739 51.4055 7.73039 46.5092 7.0737 40.8295C6.84329 38.894 6.91241 34.7926 7.18891 33.03C8.05297 27.6728 9.95389 23.1797 13.1797 18.894C14.2626 17.4539 16.5783 15.0691 18.1336 13.8018C22.6613 10.0922 28.053 7.79954 33.9055 7.09677C35.6797 6.87788 39.1359 6.87788 40.9447 7.08525Z" fill="#107DE8"/>
<path d="M26.4976 25.3917C26.4976 25.4839 24.6658 40.9562 24.5967 41.371L24.5391 41.7857L25.2073 41.9816C26.152 42.2465 28.1105 42.5 29.4469 42.5346L30.576 42.5691L30.887 39.9539C31.0598 38.5138 31.2211 37.2465 31.2442 37.1313C31.2672 37.0161 31.5898 38.1336 31.9469 39.6198C32.3156 41.106 32.5691 42.3617 32.523 42.4078C32.4654 42.4654 32.0161 42.5461 31.5091 42.5922L30.599 42.6843L30.1958 46.1636L29.7926 49.6544H26.705C24.1589 49.6544 23.6174 49.6313 23.6174 49.4931C23.6174 49.3318 24.3663 42.8917 24.47 42.1889C24.5161 41.8664 24.4815 41.7972 24.2511 41.7051C24.1013 41.6475 23.4907 41.3134 22.9032 40.9562C20.3801 39.424 17.523 38.3986 14.3432 37.8571C12.8801 37.6037 10.4492 37.4309 10.3225 37.5576C10.2534 37.6267 10.2649 38.3641 10.3571 39.47C10.6797 43.6982 11.6013 47.1659 13.3179 50.6106C17.281 58.5714 24.4239 63.4447 33.7557 64.5276C35.5529 64.735 39.2972 64.7005 40.9561 64.47C47.0737 63.5945 52.4538 60.9332 56.7396 56.6359C60.9331 52.4309 63.5598 47.2235 64.4124 41.417C64.6543 39.7926 64.6889 38.9401 64.5276 38.9401C64.47 38.9401 63.94 39.0438 63.3525 39.159C61.0944 39.6198 58.5253 39.7581 56.7165 39.5046C56.2211 39.4355 55.1036 39.1475 54.228 38.871C52.6267 38.3525 50.1727 37.8111 50.046 37.9263C49.9999 37.9839 51.1174 47.8341 51.3363 49.2166L51.4055 49.6544H48.2833C45.3916 49.6544 45.1612 49.6429 45.1497 49.447C45.1497 49.3433 44.8502 46.7857 44.493 43.7788L43.8363 38.3064L43.5368 38.2719L43.2488 38.2373L41.9469 43.5714C41.2211 46.5092 40.5875 49.0783 40.5299 49.2857L40.4262 49.6544L37.4193 49.6313L34.4009 49.5968L33.8018 47.1774C33.4677 45.841 33.0644 44.2281 32.9147 43.5829L32.6382 42.4078L33.4562 42.2235C34.3663 42.0276 36.728 41.3018 36.9469 41.1521C37.0621 41.0829 36.5667 39.2627 34.9538 33.8018C33.7903 29.8157 32.7419 26.2788 32.6497 25.9447L32.4769 25.3456H29.4815C27.8456 25.3456 26.4976 25.3687 26.4976 25.3917ZM35.9216 55.1037C35.9561 55.6106 35.9677 55.6452 36.2442 55.576C37.0161 55.3802 37.4423 55.8986 37.4423 57.0161C37.4423 57.5691 37.3847 57.765 37.1773 58.0184C36.8778 58.3525 36.3018 58.4332 35.9907 58.1682C35.8755 58.076 35.8294 58.076 35.8294 58.1682C35.8294 58.2373 35.6336 58.2949 35.3686 58.2949H34.9078V56.3825V54.4816L35.4032 54.5161L35.887 54.5507L35.9216 55.1037ZM28.6174 54.9194C28.652 55.1037 28.7442 55.576 28.8248 55.9908L28.9631 56.7396L29.205 55.7028L29.4469 54.6659L29.9193 54.6313L30.4032 54.5968L30.599 55.5184C30.7142 56.0369 30.8294 56.4516 30.8755 56.4516C30.9216 56.4516 31.0253 56.0484 31.1174 55.553L31.2787 54.6659L31.8202 54.6313L32.3502 54.5968L32.1313 55.553C32.0161 56.0829 31.8317 56.9124 31.728 57.4078L31.5322 58.3064L31.0138 58.2719L30.4953 58.2373L30.2303 57.2811C30.0921 56.7511 29.9538 56.3018 29.9308 56.2788C29.9078 56.2558 29.7695 56.6935 29.6197 57.2581L29.3548 58.2949H28.8479C28.4792 58.2949 28.3409 58.2488 28.2949 58.0876C28.2257 57.8571 27.5345 54.7581 27.5345 54.6659C27.5345 54.6313 27.7649 54.6083 28.0414 54.6083C28.5022 54.6083 28.5598 54.6313 28.6174 54.9194ZM41.3479 54.7926C41.7396 55.0691 41.9354 55.6452 41.9354 56.5092C41.9354 57.9378 41.5552 58.2949 40.0114 58.2949H38.94V56.4516V54.6083H40.0114C40.8064 54.6083 41.1405 54.6544 41.3479 54.7926ZM34.4009 55.818C34.6082 56.106 34.6082 56.8548 34.3893 57.0622C34.2972 57.1659 34.0091 57.2696 33.7557 57.3157C33.1566 57.4194 33.2718 57.6037 33.94 57.6037C34.2972 57.6037 34.47 57.6613 34.5161 57.7765C34.6543 58.1221 34.3432 58.2949 33.5598 58.2949C32.9262 58.2949 32.7879 58.2488 32.546 58.0069C32.2926 57.765 32.258 57.6267 32.2695 57.0046C32.281 56.129 32.3502 55.8986 32.7303 55.6912C33.122 55.4608 34.205 55.5415 34.4009 55.818ZM44.2856 55.7488C44.4124 55.8525 44.47 56.0945 44.47 56.4631C44.47 57.0852 44.3778 57.1774 43.629 57.3157C43.0414 57.4309 43.2027 57.6037 43.9055 57.6037C44.4239 57.6037 44.47 57.6267 44.47 57.8802C44.47 58.2258 44.2856 58.2949 43.4331 58.2949C42.4884 58.2949 42.258 58.0876 42.1889 57.1544C42.1313 56.3594 42.2926 55.8525 42.6612 55.6567C42.9838 55.4954 44.0552 55.5645 44.2856 55.7488ZM45.6451 55.8756C45.6912 56.0369 45.7949 56.394 45.864 56.682L46.0022 57.2005L46.1866 56.394L46.3709 55.5876L46.8663 55.553C47.2004 55.5299 47.3502 55.5645 47.3502 55.6682C47.3502 55.7488 47.1658 56.371 46.9354 57.0507L46.5207 58.2949H45.9677H45.4032L44.9999 57.0046C44.781 56.3018 44.6313 55.6682 44.6658 55.6221C44.6889 55.5645 44.9078 55.5299 45.1382 55.553C45.4723 55.576 45.576 55.6452 45.6451 55.8756Z" fill="#107DE8"/>
<path d="M36.0253 56.4055C35.9793 56.4516 35.9447 56.7166 35.9447 56.9931C35.9447 57.4194 35.9793 57.4885 36.1866 57.4885C36.394 57.4885 36.4171 57.4309 36.3825 56.947C36.3479 56.4401 36.2097 56.2327 36.0253 56.4055Z" fill="#107DE8"/>
<path d="M39.9769 56.4516V57.3848L40.4032 57.3502C40.8064 57.3157 40.841 57.2811 40.9101 56.8779C40.9447 56.6475 40.9447 56.2558 40.9101 56.0138C40.841 55.6221 40.8064 55.5876 40.4032 55.553L39.9769 55.5184V56.4516Z" fill="#107DE8"/>
<path d="M33.2603 56.4055C33.099 56.5668 33.1797 56.6935 33.4101 56.659C33.5484 56.6359 33.652 56.5668 33.652 56.5092C33.652 56.371 33.3755 56.3018 33.2603 56.4055Z" fill="#107DE8"/>
<path d="M43.1566 56.5092C43.1105 56.6359 43.1681 56.682 43.3755 56.682C43.5598 56.682 43.6635 56.6129 43.6635 56.5092C43.6635 56.4171 43.5598 56.3364 43.4446 56.3364C43.3294 56.3364 43.2027 56.4171 43.1566 56.5092Z" fill="#107DE8"/>
<path d="M42.5114 25.3802C42.5114 25.3917 41.5091 28.8249 40.2764 33.0069C39.0437 37.1889 38.0529 40.6336 38.076 40.6567C38.1451 40.7143 39.5737 39.9078 40.3225 39.3894C40.6912 39.1359 41.3709 38.8249 41.9354 38.6521C42.4769 38.4793 42.9953 38.3065 43.0875 38.2604C43.1796 38.2143 43.3409 37.8341 43.4331 37.4309C43.6174 36.7166 43.6174 36.7051 43.6981 37.0853C43.7442 37.2926 43.7787 37.6152 43.7787 37.7995C43.7787 37.9839 43.8133 38.1336 43.8709 38.1336C43.917 38.1336 44.4239 38.053 44.9884 37.9608C45.6105 37.8571 46.7972 37.788 47.9607 37.788C49.516 37.788 49.8847 37.7535 49.8847 37.6267C49.8847 37.3848 48.5022 25.8986 48.4446 25.5991L48.387 25.3456H45.4492C43.8363 25.3456 42.5114 25.3571 42.5114 25.3802Z" fill="#107DE8"/>
<path d="M37.5345 40.9447C37.1774 41.0714 37.1659 41.1866 37.3732 41.8779L37.5 42.3272L37.7074 41.6014C37.8226 41.1981 37.8917 40.864 37.8802 40.841C37.8571 40.8295 37.7074 40.8756 37.5345 40.9447Z" fill="#107DE8"/>
<path d="M85.936 36L88.024 18.192H91.96L95.824 31.224L99.664 18.192H103.552L105.664 36H101.68L100.216 23.784L100.84 23.808L97.72 36H93.832L90.688 23.808L91.36 23.784L89.944 36H85.936ZM110.407 36.144C109.415 36.144 108.615 35.856 108.007 35.28C107.399 34.688 107.095 33.888 107.095 32.88V31.632C107.095 30.656 107.439 29.848 108.127 29.208C108.831 28.568 109.927 28.248 111.415 28.248H114.343V27.624C114.343 27.272 114.279 26.984 114.151 26.76C114.023 26.536 113.775 26.376 113.407 26.28C113.039 26.184 112.471 26.136 111.703 26.136H107.911V23.76C108.551 23.52 109.295 23.328 110.143 23.184C111.007 23.024 112.047 22.936 113.263 22.92C114.335 22.92 115.263 23.048 116.047 23.304C116.831 23.56 117.431 24.008 117.847 24.648C118.279 25.272 118.495 26.168 118.495 27.336V36H115.207L114.559 34.68C114.415 34.808 114.215 34.96 113.959 35.136C113.719 35.296 113.415 35.456 113.047 35.616C112.695 35.776 112.295 35.904 111.847 36C111.399 36.096 110.919 36.144 110.407 36.144ZM112.543 33.288C112.655 33.304 112.783 33.296 112.927 33.264C113.087 33.232 113.239 33.2 113.383 33.168C113.527 33.12 113.663 33.08 113.791 33.048C113.935 33 114.047 32.96 114.127 32.928C114.223 32.88 114.295 32.848 114.343 32.832V30.192L112.807 30.336C112.279 30.4 111.879 30.544 111.607 30.768C111.351 30.976 111.223 31.28 111.223 31.68V32.184C111.223 32.456 111.279 32.68 111.391 32.856C111.503 33.016 111.655 33.128 111.847 33.192C112.055 33.256 112.287 33.288 112.543 33.288ZM121.273 21.336C120.921 21.336 120.745 21.16 120.745 20.808V18.288C120.745 17.92 120.921 17.736 121.273 17.736H124.513C124.673 17.736 124.793 17.792 124.873 17.904C124.953 18 124.993 18.128 124.993 18.288V20.808C124.993 21.16 124.833 21.336 124.513 21.336H121.273ZM120.817 41.688V23.088H124.969V36C124.969 36.96 124.881 37.96 124.705 39C124.529 40.04 124.281 40.936 123.961 41.688H120.817ZM133.068 36.12C131.964 36.12 131.02 36.008 130.236 35.784C129.468 35.544 128.844 35.168 128.364 34.656C127.884 34.128 127.54 33.448 127.332 32.616C127.124 31.768 127.02 30.736 127.02 29.52C127.02 28.208 127.124 27.128 127.332 26.28C127.556 25.416 127.908 24.736 128.388 24.24C128.868 23.744 129.492 23.392 130.26 23.184C131.044 22.976 131.98 22.872 133.068 22.872C134.188 22.872 135.132 22.984 135.9 23.208C136.668 23.416 137.284 23.776 137.748 24.288C138.228 24.784 138.58 25.464 138.804 26.328C139.028 27.176 139.14 28.24 139.14 29.52C139.14 30.784 139.036 31.84 138.828 32.688C138.62 33.536 138.276 34.216 137.796 34.728C137.332 35.224 136.708 35.584 135.924 35.808C135.156 36.016 134.204 36.12 133.068 36.12ZM133.068 32.832C133.436 32.832 133.74 32.8 133.98 32.736C134.22 32.656 134.412 32.512 134.556 32.304C134.7 32.08 134.804 31.744 134.868 31.296C134.948 30.848 134.988 30.248 134.988 29.496C134.988 28.744 134.948 28.144 134.868 27.696C134.804 27.248 134.7 26.92 134.556 26.712C134.412 26.488 134.22 26.344 133.98 26.28C133.74 26.216 133.436 26.184 133.068 26.184C132.716 26.184 132.42 26.216 132.18 26.28C131.94 26.344 131.74 26.488 131.58 26.712C131.436 26.92 131.332 27.248 131.268 27.696C131.204 28.144 131.172 28.744 131.172 29.496C131.172 30.248 131.204 30.848 131.268 31.296C131.332 31.744 131.436 32.08 131.58 32.304C131.74 32.512 131.94 32.656 132.18 32.736C132.42 32.8 132.716 32.832 133.068 32.832ZM141.184 36V23.088H144.4L145.336 24.96C145.752 24.4 146.232 23.92 146.776 23.52C147.32 23.104 147.968 22.896 148.72 22.896C148.864 22.896 149.024 22.904 149.2 22.92C149.392 22.936 149.568 22.968 149.728 23.016V27.264C149.472 27.232 149.208 27.208 148.936 27.192C148.664 27.176 148.408 27.168 148.168 27.168C147.752 27.168 147.368 27.216 147.016 27.312C146.68 27.392 146.368 27.52 146.08 27.696C145.808 27.856 145.56 28.072 145.336 28.344V36H141.184Z" fill="#107DE8"/>
<path d="M85.966 58V47.668H87.688V52.134H92.042V47.668H93.778V58H92.042V53.688H87.688V58H85.966ZM98.766 58.07C98.178 58.07 97.6694 58.0093 97.24 57.888C96.8107 57.7667 96.4607 57.5613 96.19 57.272C95.9194 56.9827 95.7187 56.5907 95.588 56.096C95.4574 55.6013 95.392 54.9807 95.392 54.234C95.392 53.4593 95.4574 52.8247 95.588 52.33C95.7187 51.826 95.9194 51.434 96.19 51.154C96.47 50.8647 96.8247 50.6687 97.254 50.566C97.6834 50.454 98.1874 50.398 98.766 50.398C99.3634 50.398 99.8767 50.4587 100.306 50.58C100.735 50.692 101.085 50.888 101.356 51.168C101.627 51.448 101.827 51.84 101.958 52.344C102.089 52.8387 102.154 53.4687 102.154 54.234C102.154 54.99 102.089 55.62 101.958 56.124C101.837 56.6187 101.641 57.0107 101.37 57.3C101.099 57.58 100.749 57.7807 100.32 57.902C99.8907 58.014 99.3727 58.07 98.766 58.07ZM98.766 56.684C99.0554 56.684 99.3027 56.6607 99.508 56.614C99.7134 56.558 99.8814 56.4507 100.012 56.292C100.152 56.124 100.255 55.8767 100.32 55.55C100.385 55.214 100.418 54.7707 100.418 54.22C100.418 53.6787 100.385 53.2447 100.32 52.918C100.255 52.5913 100.152 52.3487 100.012 52.19C99.8814 52.022 99.7134 51.9147 99.508 51.868C99.3027 51.812 99.0554 51.784 98.766 51.784C98.486 51.784 98.2434 51.812 98.038 51.868C97.8327 51.9147 97.6647 52.022 97.534 52.19C97.4034 52.3487 97.3007 52.5913 97.226 52.918C97.1607 53.2447 97.128 53.6787 97.128 54.22C97.128 54.7707 97.1607 55.214 97.226 55.55C97.3007 55.8767 97.4034 56.124 97.534 56.292C97.6647 56.4507 97.8327 56.558 98.038 56.614C98.2434 56.6607 98.486 56.684 98.766 56.684ZM103.696 58V50.496H105.11L105.432 51.28C105.778 51.0373 106.156 50.8273 106.566 50.65C106.986 50.4633 107.481 50.37 108.05 50.37C108.517 50.37 108.909 50.4727 109.226 50.678C109.553 50.874 109.796 51.1307 109.954 51.448C110.169 51.28 110.426 51.1167 110.724 50.958C111.032 50.79 111.359 50.65 111.704 50.538C112.05 50.426 112.39 50.37 112.726 50.37C113.305 50.37 113.767 50.4867 114.112 50.72C114.467 50.944 114.719 51.2613 114.868 51.672C115.018 52.0733 115.092 52.54 115.092 53.072V58H113.356V53.212C113.356 52.9413 113.305 52.7127 113.202 52.526C113.1 52.3393 112.955 52.1947 112.768 52.092C112.591 51.9893 112.372 51.938 112.11 51.938C111.774 51.938 111.434 52.0033 111.088 52.134C110.752 52.2647 110.444 52.4233 110.164 52.61C110.202 52.7033 110.225 52.806 110.234 52.918C110.253 53.03 110.262 53.142 110.262 53.254V58H108.526V53.212C108.526 52.9413 108.475 52.7127 108.372 52.526C108.27 52.3393 108.125 52.1947 107.938 52.092C107.761 51.9893 107.542 51.938 107.28 51.938C107.038 51.938 106.809 51.9613 106.594 52.008C106.389 52.0547 106.193 52.1247 106.006 52.218C105.82 52.3113 105.628 52.4233 105.432 52.554V58H103.696ZM119.874 58.07C119.062 58.07 118.413 57.958 117.928 57.734C117.452 57.51 117.106 57.1227 116.892 56.572C116.677 56.012 116.57 55.2373 116.57 54.248C116.57 53.24 116.672 52.4607 116.878 51.91C117.083 51.35 117.424 50.958 117.9 50.734C118.376 50.51 119.02 50.398 119.832 50.398C120.55 50.398 121.124 50.4727 121.554 50.622C121.992 50.762 122.31 51.0187 122.506 51.392C122.711 51.756 122.814 52.274 122.814 52.946C122.814 53.422 122.72 53.8047 122.534 54.094C122.347 54.374 122.076 54.5747 121.722 54.696C121.376 54.8173 120.966 54.878 120.49 54.878H118.292C118.31 55.3447 118.371 55.718 118.474 55.998C118.586 56.2687 118.782 56.4647 119.062 56.586C119.351 56.7073 119.771 56.768 120.322 56.768H122.59V57.79C122.207 57.8647 121.801 57.93 121.372 57.986C120.952 58.042 120.452 58.07 119.874 58.07ZM118.278 53.828H120.322C120.648 53.828 120.886 53.7673 121.036 53.646C121.194 53.5153 121.274 53.282 121.274 52.946C121.274 52.6193 121.227 52.3627 121.134 52.176C121.04 51.9893 120.886 51.8587 120.672 51.784C120.457 51.7 120.177 51.658 119.832 51.658C119.44 51.658 119.132 51.7187 118.908 51.84C118.684 51.9613 118.52 52.1807 118.418 52.498C118.324 52.806 118.278 53.2493 118.278 53.828ZM131.155 58.084C130.903 58.084 130.632 58.0747 130.343 58.056C130.063 58.0467 129.773 58.028 129.475 58C129.185 57.9627 128.91 57.93 128.649 57.902C128.387 57.8647 128.154 57.8227 127.949 57.776V56.418C128.21 56.4367 128.513 56.4553 128.859 56.474C129.213 56.4927 129.582 56.5067 129.965 56.516C130.347 56.5253 130.716 56.53 131.071 56.53C131.444 56.53 131.775 56.4973 132.065 56.432C132.354 56.3573 132.578 56.2313 132.737 56.054C132.895 55.8767 132.975 55.6247 132.975 55.298V54.808C132.975 54.444 132.872 54.164 132.667 53.968C132.461 53.772 132.158 53.674 131.757 53.674H130.791C129.848 53.674 129.12 53.4687 128.607 53.058C128.103 52.6473 127.851 51.9427 127.851 50.944V50.412C127.851 49.4133 128.126 48.6947 128.677 48.256C129.237 47.808 130.035 47.584 131.071 47.584C131.425 47.584 131.789 47.6027 132.163 47.64C132.545 47.668 132.909 47.7053 133.255 47.752C133.6 47.7987 133.894 47.85 134.137 47.906V49.264C133.726 49.236 133.255 49.208 132.723 49.18C132.2 49.152 131.715 49.138 131.267 49.138C130.912 49.138 130.599 49.1753 130.329 49.25C130.058 49.3247 129.853 49.46 129.713 49.656C129.573 49.8427 129.503 50.1227 129.503 50.496V50.832C129.503 51.2707 129.619 51.5787 129.853 51.756C130.095 51.9333 130.441 52.022 130.889 52.022H131.967C132.573 52.022 133.073 52.134 133.465 52.358C133.857 52.582 134.146 52.89 134.333 53.282C134.529 53.6647 134.627 54.1033 134.627 54.598V55.256C134.627 56.0213 134.477 56.6093 134.179 57.02C133.88 57.4307 133.469 57.7107 132.947 57.86C132.424 58.0093 131.827 58.084 131.155 58.084ZM138.378 58.084C137.688 58.084 137.151 57.8927 136.768 57.51C136.386 57.118 136.194 56.5487 136.194 55.802V50.496H137.93V55.298C137.93 55.7927 138.042 56.124 138.266 56.292C138.5 56.46 138.812 56.544 139.204 56.544C139.531 56.544 139.848 56.4927 140.156 56.39C140.464 56.2873 140.754 56.138 141.024 55.942V50.496H142.76V58H141.346L141.024 57.216C140.67 57.44 140.264 57.6407 139.806 57.818C139.358 57.9953 138.882 58.084 138.378 58.084ZM144.731 49.306C144.554 49.306 144.465 49.222 144.465 49.054V47.78C144.465 47.5933 144.554 47.5 144.731 47.5H146.047C146.131 47.5 146.192 47.528 146.229 47.584C146.276 47.64 146.299 47.7053 146.299 47.78V49.054C146.299 49.222 146.215 49.306 146.047 49.306H144.731ZM144.507 58V50.496H146.243V58H144.507ZM150.751 58C150.209 58 149.766 57.9207 149.421 57.762C149.075 57.594 148.823 57.3187 148.665 56.936C148.515 56.5533 148.445 56.0493 148.455 55.424L148.511 51.896H147.335V50.776L148.567 50.496L148.819 48.396H150.177V50.496H152.081V51.896H150.177V55.41C150.177 55.6527 150.2 55.8533 150.247 56.012C150.293 56.1613 150.359 56.2827 150.443 56.376C150.536 56.46 150.634 56.5207 150.737 56.558C150.839 56.5953 150.947 56.6187 151.059 56.628L151.997 56.726V58H150.751ZM156.419 58.07C155.607 58.07 154.958 57.958 154.473 57.734C153.997 57.51 153.651 57.1227 153.437 56.572C153.222 56.012 153.115 55.2373 153.115 54.248C153.115 53.24 153.217 52.4607 153.423 51.91C153.628 51.35 153.969 50.958 154.445 50.734C154.921 50.51 155.565 50.398 156.377 50.398C157.095 50.398 157.669 50.4727 158.099 50.622C158.537 50.762 158.855 51.0187 159.051 51.392C159.256 51.756 159.359 52.274 159.359 52.946C159.359 53.422 159.265 53.8047 159.079 54.094C158.892 54.374 158.621 54.5747 158.267 54.696C157.921 54.8173 157.511 54.878 157.035 54.878H154.837C154.855 55.3447 154.916 55.718 155.019 55.998C155.131 56.2687 155.327 56.4647 155.607 56.586C155.896 56.7073 156.316 56.768 156.867 56.768H159.135V57.79C158.752 57.8647 158.346 57.93 157.917 57.986C157.497 58.042 156.997 58.07 156.419 58.07ZM154.823 53.828H156.867C157.193 53.828 157.431 53.7673 157.581 53.646C157.739 53.5153 157.819 53.282 157.819 52.946C157.819 52.6193 157.772 52.3627 157.679 52.176C157.585 51.9893 157.431 51.8587 157.217 51.784C157.002 51.7 156.722 51.658 156.377 51.658C155.985 51.658 155.677 51.7187 155.453 51.84C155.229 51.9613 155.065 52.1807 154.963 52.498C154.869 52.806 154.823 53.2493 154.823 53.828ZM163.588 58.084C163.373 58.084 163.126 58.0747 162.846 58.056C162.575 58.0467 162.3 58.028 162.02 58C161.749 57.9813 161.497 57.9533 161.264 57.916C161.03 57.8787 160.839 57.8367 160.69 57.79V56.768H163.924C164.157 56.768 164.353 56.7493 164.512 56.712C164.68 56.6747 164.806 56.6 164.89 56.488C164.974 56.376 165.016 56.208 165.016 55.984V55.718C165.016 55.4847 164.936 55.3027 164.778 55.172C164.628 55.032 164.362 54.962 163.98 54.962H162.846C162.407 54.962 162.015 54.9013 161.67 54.78C161.334 54.6587 161.068 54.4533 160.872 54.164C160.676 53.8747 160.578 53.4827 160.578 52.988V52.568C160.578 52.092 160.666 51.7 160.844 51.392C161.03 51.0747 161.334 50.8367 161.754 50.678C162.183 50.51 162.752 50.426 163.462 50.426C163.76 50.426 164.082 50.44 164.428 50.468C164.773 50.496 165.104 50.5333 165.422 50.58C165.739 50.6173 165.991 50.664 166.178 50.72V51.742H163.126C162.78 51.742 162.514 51.8027 162.328 51.924C162.15 52.036 162.062 52.2507 162.062 52.568V52.834C162.062 53.0393 162.104 53.1933 162.188 53.296C162.272 53.3987 162.398 53.4687 162.566 53.506C162.734 53.5433 162.934 53.562 163.168 53.562H164.33C165.067 53.562 165.613 53.73 165.968 54.066C166.322 54.402 166.5 54.878 166.5 55.494V56.11C166.5 56.614 166.383 57.0107 166.15 57.3C165.916 57.5893 165.58 57.7947 165.142 57.916C164.712 58.028 164.194 58.084 163.588 58.084Z" fill="#107DE8"/>
</svg>
